<svg width="111" height="111" viewBox="0 0 111 111" fill="none" xmlns="http://www.w3.org/2000/svg">
<g clip-path="url(#clip0_33_1080)">
<path d="M55.5 0C24.8485 0 0 24.8485 0 55.5C0 81.5273 17.9198 103.368 42.0934 109.366V72.4608H30.6493V55.5H42.0934V48.1918C42.0934 29.3018 50.6426 20.5461 69.1885 20.5461C72.705 20.5461 78.7723 21.2365 81.2542 21.9247V37.2982C79.9444 37.1606 77.6689 37.0918 74.8429 37.0918C65.7431 37.0918 62.2266 40.5394 62.2266 49.5016V55.5H80.3551L77.2405 72.4608H62.2266V110.594C89.708 107.275 111.002 83.876 111.002 55.5C111 24.8485 86.1515 0 55.5 0Z" fill="#493730"/>
</g>
<defs>
<clipPath id="clip0_33_1080">
<rect width="111" height="111" fill="white"/>
</clipPath>
</defs>
</svg>
