<svg width="111" height="111" viewBox="0 0 111 111" fill="none" xmlns="http://www.w3.org/2000/svg">
<g clip-path="url(#clip0_33_1079)">
<path d="M55.5 9.99434C70.3289 9.99434 72.085 10.0594 77.9168 10.3195C83.3367 10.558 86.2635 11.4686 88.2147 12.2273C90.7945 13.2246 92.659 14.4387 94.5885 16.3682C96.5396 18.3193 97.732 20.1621 98.7293 22.742C99.4881 24.6932 100.399 27.6416 100.637 33.0398C100.897 38.8934 100.962 40.6494 100.962 55.4566C100.962 70.2856 100.897 72.0416 100.637 77.8734C100.399 83.2934 99.4881 86.2201 98.7293 88.1713C97.732 90.7512 96.518 92.6156 94.5885 94.5451C92.6373 96.4963 90.7945 97.6887 88.2147 98.6859C86.2635 99.4447 83.315 100.355 77.9168 100.594C72.0633 100.854 70.3072 100.919 55.5 100.919C40.6711 100.919 38.915 100.854 33.0832 100.594C27.6633 100.355 24.7365 99.4447 22.7854 98.6859C20.2055 97.6887 18.341 96.4746 16.4115 94.5451C14.4604 92.5939 13.268 90.7512 12.2707 88.1713C11.5119 86.2201 10.6014 83.2717 10.3629 77.8734C10.1027 72.0199 10.0377 70.2639 10.0377 55.4566C10.0377 40.6277 10.1027 38.8717 10.3629 33.0398C10.6014 27.6199 11.5119 24.6932 12.2707 22.742C13.268 20.1621 14.482 18.2977 16.4115 16.3682C18.3627 14.417 20.2055 13.2246 22.7854 12.2273C24.7365 11.4686 27.685 10.558 33.0832 10.3195C38.915 10.0594 40.6711 9.99434 55.5 9.99434ZM55.5 0C40.4326 0 38.5465 0.0650391 32.6279 0.325195C26.7311 0.585352 22.677 1.53926 19.1648 2.90508C15.501 4.33594 12.4008 6.22207 9.32227 9.32227C6.22207 12.4008 4.33594 15.501 2.90508 19.1432C1.53926 22.677 0.585352 26.7094 0.325195 32.6062C0.0650391 38.5465 0 40.4326 0 55.5C0 70.5674 0.0650391 72.4535 0.325195 78.3721C0.585352 84.2689 1.53926 88.3231 2.90508 91.8352C4.33594 95.499 6.22207 98.5992 9.32227 101.678C12.4008 104.756 15.501 106.664 19.1432 108.073C22.677 109.439 26.7094 110.393 32.6063 110.653C38.5248 110.913 40.4109 110.978 55.4783 110.978C70.5457 110.978 72.4318 110.913 78.3504 110.653C84.2473 110.393 88.3014 109.439 91.8135 108.073C95.4557 106.664 98.5559 104.756 101.634 101.678C104.713 98.5992 106.621 95.499 108.03 91.8568C109.396 88.3231 110.35 84.2906 110.61 78.3938C110.87 72.4752 110.935 70.5891 110.935 55.5217C110.935 40.4543 110.87 38.5682 110.61 32.6496C110.35 26.7527 109.396 22.6986 108.03 19.1865C106.664 15.501 104.778 12.4008 101.678 9.32227C98.5992 6.24375 95.499 4.33594 91.8568 2.92676C88.3231 1.56094 84.2906 0.607031 78.3938 0.346875C72.4535 0.0650391 70.5674 0 55.5 0Z" fill="#493730"/>
<path d="M55.5 26.9912C39.7605 26.9912 26.9912 39.7605 26.9912 55.5C26.9912 71.2395 39.7605 84.0088 55.5 84.0088C71.2395 84.0088 84.0088 71.2395 84.0088 55.5C84.0088 39.7605 71.2395 26.9912 55.5 26.9912ZM55.5 73.9928C45.2889 73.9928 37.0072 65.7111 37.0072 55.5C37.0072 45.2889 45.2889 37.0072 55.5 37.0072C65.7111 37.0072 73.9928 45.2889 73.9928 55.5C73.9928 65.7111 65.7111 73.9928 55.5 73.9928Z" fill="#493730"/>
<path d="M91.7918 25.8637C91.7918 29.5492 88.8 32.5194 85.1361 32.5194C81.4506 32.5194 78.4805 29.5276 78.4805 25.8637C78.4805 22.1781 81.4723 19.208 85.1361 19.208C88.8 19.208 91.7918 22.1998 91.7918 25.8637Z" fill="#493730"/>
</g>
<defs>
<clipPath id="clip0_33_1079">
<rect width="111" height="111" fill="white"/>
</clipPath>
</defs>
</svg>
